<?xml version="1.0" standalone="no"?>
<svg xmlns="http://www.w3.org/2000/svg" xmlns:xlink="http://www.w3.org/1999/xlink" width="608pt" height="417pt" viewBox="0.00 0.00 608.44 417.42">
<g id="graph0" class="graph" transform="translate(4,413.4200134277344) scale(1)" data-name="">
<polygon fill="white" stroke="none" points="-4,4 -4,-413.42 604.44,-413.42 604.44,4 -4,4"/>
<g id="clust2" class="cluster" data-name="cluster_cleanlock">

<polygon fill="none" stroke="black" points="8,-230.83 8,-401.42 492,-401.42 492,-230.83 8,-230.83"/>
</g>
<!-- slowsql -->
<g id="node1" class="node" pointer-events="visible" data-name="slowsql">

<ellipse fill="lightpink" stroke="black" cx="415" cy="-18" rx="44.07" ry="18"/>
<text text-anchor="middle" x="415" y="-13.8" font-family="Times,serif" font-size="14.00">sql执行慢</text>
</g>
<!-- cleanlock -->
<g id="node2" class="node" pointer-events="visible" data-name="cleanlock">

<ellipse fill="none" stroke="black" cx="415" cy="-173.42" rx="70.92" ry="29.33"/>
<text text-anchor="middle" x="415" y="-177.62" font-family="Times,serif" font-size="14.00">他人清理残留的锁</text>
<text text-anchor="middle" x="415" y="-160.82" font-family="Times,serif" font-size="14.00">每行锁等一秒</text>
</g>
<!-- wait_owner -->
<g id="node3" class="node" pointer-events="visible" data-name="wait_owner">

<ellipse fill="none" stroke="black" stroke-dasharray="5,2" cx="552" cy="-173.42" rx="48.37" ry="29.33"/>
<text text-anchor="middle" x="552" y="-177.62" font-family="Times,serif" font-size="14.00">先等锁主人</text>
<text text-anchor="middle" x="552" y="-160.82" font-family="Times,serif" font-size="14.00">自己清理</text>
</g>
<!-- cleanlock&#45;&gt;wait_owner -->
<g id="edge5" class="edge" data-name="cleanlock-&gt;wait_owner">

<path fill="none" stroke="black" d="M486.18,-173.42C488.03,-173.42 489.89,-173.42 491.74,-173.42"/>
<polygon fill="black" stroke="black" points="491.63,-176.92 501.63,-173.42 491.63,-169.92 491.63,-176.92"/>
</g>
<!-- lock_rpc用时长 -->
<g id="node6" class="node" pointer-events="visible" data-name="lock_rpc用时长">

<ellipse fill="none" stroke="black" cx="415" cy="-90" rx="66.6" ry="18"/>
<text text-anchor="middle" x="415" y="-85.8" font-family="Times,serif" font-size="14.00">lock_rpc用时长</text>
</g>
<!-- cleanlock&#45;&gt;lock_rpc用时长 -->
<g id="edge2" class="edge" data-name="cleanlock-&gt;lock_rpc用时长">

<path fill="none" stroke="black" d="M415,-143.94C415,-136.02 415,-127.43 415,-119.51"/>
<polygon fill="black" stroke="black" points="418.5,-119.7 415,-109.7 411.5,-119.7 418.5,-119.7"/>
</g>
<!-- lock_timeout -->
<g id="node4" class="node" pointer-events="visible" data-name="lock_timeout">

<ellipse fill="none" stroke="black" stroke-dasharray="5,2" cx="229" cy="-173.42" rx="97.16" ry="29.33"/>
<text text-anchor="middle" x="229" y="-177.62" font-family="Times,serif" font-size="14.00">tikv参数</text>
<text text-anchor="middle" x="229" y="-160.82" font-family="Times,serif" font-size="14.00">wait-for-lock-timeout</text>
</g>
<!-- lock_timeout&#45;&gt;cleanlock -->
<g id="edge4" class="edge" data-name="lock_timeout-&gt;cleanlock">

<path fill="none" stroke="black" d="M326.36,-173.42C328.34,-173.42 330.33,-173.42 332.31,-173.42"/>
<polygon fill="black" stroke="black" points="332.16,-176.92 342.16,-173.42 332.16,-169.92 332.16,-176.92"/>
</g>
<!-- A的锁由他人清理 -->
<g id="node5" class="node" pointer-events="visible" data-name="A的锁由他人清理">

<ellipse fill="none" stroke="black" cx="415" cy="-256.83" rx="68.92" ry="18"/>
<text text-anchor="middle" x="415" y="-252.63" font-family="Times,serif" font-size="14.00">A的锁由他人清理</text>
</g>
<!-- A的锁由他人清理&#45;&gt;cleanlock -->
<g id="edge1" class="edge" data-name="A的锁由他人清理-&gt;cleanlock">

<path fill="none" stroke="black" d="M415,-238.57C415,-231.51 415,-223.02 415,-214.56" stroke-dasharray="5,2"/>
<polygon fill="black" stroke="black" points="418.5,-214.7 415,-204.7 411.5,-214.7 418.5,-214.7"/>
</g>
<!-- lock_rpc用时长&#45;&gt;slowsql -->
<g id="edge3" class="edge" data-name="lock_rpc用时长-&gt;slowsql">

<path fill="none" stroke="black" d="M415,-71.7C415,-64.41 415,-55.73 415,-47.54"/>
<polygon fill="black" stroke="black" points="418.5,-47.62 415,-37.62 411.5,-47.62 418.5,-47.62"/>
</g>
<!-- 会话A或\ntidb&#45;server死了 -->
<g id="node7" class="node" pointer-events="visible" data-name="会话A或\ntidb-server死了">

<ellipse fill="none" stroke="black" cx="415" cy="-352.13" rx="69.09" ry="29.33"/>
<text text-anchor="middle" x="415" y="-356.33" font-family="Times,serif" font-size="14.00">会话A或</text>
<text text-anchor="middle" x="415" y="-339.53" font-family="Times,serif" font-size="14.00">tidb-server死了</text>
</g>
<!-- 会话A或\ntidb&#45;server死了&#45;&gt;A的锁由他人清理 -->
<g id="edge6" class="edge" data-name="会话A或\ntidb-server死了-&gt;A的锁由他人清理">

<path fill="none" stroke="black" d="M415,-322.37C415,-311.05 415,-298.07 415,-286.73"/>
<polygon fill="black" stroke="black" points="418.5,-286.74 415,-276.74 411.5,-286.74 418.5,-286.74"/>
</g>
<!-- 会话A因为锁冲突\n而放弃已持有的锁 -->
<g id="node8" class="node" pointer-events="visible" data-name="会话A\n因为锁冲突放弃\n已持有的锁" data-comment="会话A因为锁冲突\n而放弃已持有的锁">

<ellipse fill="none" stroke="black" cx="265" cy="-352.13" rx="63.07" ry="41.09"/>
<text text-anchor="middle" x="265" y="-364.73" font-family="Times,serif" font-size="14.00">会话A</text>
<text text-anchor="middle" x="265" y="-347.93" font-family="Times,serif" font-size="14.00">因为锁冲突放弃</text>
<text text-anchor="middle" x="265" y="-331.13" font-family="Times,serif" font-size="14.00">已持有的锁</text>
</g>
<!-- A自己清理 -->
<g id="node9" class="node" pointer-events="visible" data-name="A自己清理">

<ellipse fill="none" stroke="black" cx="182" cy="-256.83" rx="46.96" ry="18"/>
<text text-anchor="middle" x="182" y="-252.63" font-family="Times,serif" font-size="14.00">A自己清理</text>
</g>
<!-- 会话A因为锁冲突\n而放弃已持有的锁&#45;&gt;A自己清理 -->
<g id="edge7" class="edge" data-name="会话A\n因为锁冲突放弃\n已持有的锁-&gt;A自己清理" data-comment="会话A因为锁冲突\n而放弃已持有的锁-&gt;A自己清理">

<path fill="none" stroke="black" d="M233.86,-316.12C223.9,-304.92 213.08,-292.77 203.92,-282.47"/>
<polygon fill="black" stroke="black" points="206.63,-280.25 197.37,-275.1 201.4,-284.9 206.63,-280.25"/>
</g>
<!-- 会话A提交 primary key后\n异步commit second keys -->
<g id="node10" class="node" pointer-events="visible" data-name="会话A\n提交 primary key后\n处理second keys" data-comment="会话A提交 primary key后\n异步commit second keys">

<ellipse fill="none" stroke="black" cx="100" cy="-352.13" rx="84.34" ry="41.09"/>
<text text-anchor="middle" x="100" y="-364.73" font-family="Times,serif" font-size="14.00">会话A</text>
<text text-anchor="middle" x="100" y="-347.93" font-family="Times,serif" font-size="14.00">提交 primary key后</text>
<text text-anchor="middle" x="100" y="-331.13" font-family="Times,serif" font-size="14.00">处理second keys</text>
</g>
<!-- 会话A提交 primary key后\n异步commit second keys&#45;&gt;A自己清理 -->
<g id="edge8" class="edge" data-name="会话A\n提交 primary key后\n处理second keys-&gt;A自己清理" data-comment="会话A提交 primary key后\n异步commit second keys-&gt;A自己清理">

<path fill="none" stroke="black" d="M132.64,-313.99C141.85,-303.51 151.64,-292.37 160.06,-282.8"/>
<polygon fill="black" stroke="black" points="162.67,-285.13 166.64,-275.31 157.41,-280.51 162.67,-285.13"/>
</g>
</g>
</svg>