<?xml version="1.0" standalone="no"?>
<svg xmlns="http://www.w3.org/2000/svg" xmlns:xlink="http://www.w3.org/1999/xlink" width="532pt" height="371pt" viewBox="0.00 0.00 531.76 371.00">
<g id="graph0" class="graph" transform="translate(4,367) scale(1)" data-name="">
<polygon fill="white" stroke="none" points="-4,4 -4,-367 527.76,-367 527.76,4 -4,4"/>
<g id="clust1" class="cluster" data-name="cluster_t2">

<polygon fill="none" stroke="black" points="8,-8 8,-215 508.51,-215 508.51,-8 8,-8"/>
<text text-anchor="middle" x="258.25" y="-198.4" font-family="Times,serif" font-size="14.00">开启Compaction Filter后</text>
<text text-anchor="middle" x="258.25" y="-181.6" font-family="Times,serif" font-size="14.00">delete数据的生命周期</text>
<text text-anchor="middle" x="258.25" y="-164.8" font-family="Times,serif" font-size="14.00">  </text>
</g>
<g id="clust2" class="cluster" data-name="cluster_t1">

<polygon fill="none" stroke="black" points="8,-223 8,-355 515.76,-355 515.76,-223 8,-223"/>
<text text-anchor="middle" x="261.88" y="-338.4" font-family="Times,serif" font-size="14.00">传统GC流程</text>
<text text-anchor="middle" x="261.88" y="-321.6" font-family="Times,serif" font-size="14.00">delete数据的生命周期</text>
<text text-anchor="middle" x="261.88" y="-304.8" font-family="Times,serif" font-size="14.00">  </text>
</g>
<!-- t2_mvcc -->
<g id="node1" class="node" pointer-events="visible" data-name="t2_mvcc">

<path fill="none" stroke="black" d="M104.48,-143.48C104.48,-146.36 84.61,-148.7 60.16,-148.7 35.7,-148.7 15.84,-146.36 15.84,-143.48 15.84,-143.48 15.84,-96.52 15.84,-96.52 15.84,-93.64 35.7,-91.3 60.16,-91.3 84.61,-91.3 104.48,-93.64 104.48,-96.52 104.48,-96.52 104.48,-143.48 104.48,-143.48"/>
<path fill="none" stroke="black" d="M104.48,-143.48C104.48,-140.6 84.61,-138.26 60.16,-138.26 35.7,-138.26 15.84,-140.6 15.84,-143.48"/>
<text text-anchor="middle" x="60.16" y="-124.2" font-family="Times,serif" font-size="14.00">作为mvcc数据</text>
<text text-anchor="middle" x="60.16" y="-107.4" font-family="Times,serif" font-size="14.00">仍在region中</text>
</g>
<!-- t2_clear -->
<g id="node2" class="node" pointer-events="visible" data-name="t2_clear">

<path fill="lightgreen" stroke="black" d="M308.52,-143.48C308.52,-146.36 293.28,-148.7 274.52,-148.7 255.76,-148.7 240.52,-146.36 240.52,-143.48 240.52,-143.48 240.52,-96.52 240.52,-96.52 240.52,-93.64 255.76,-91.3 274.52,-91.3 293.28,-91.3 308.52,-93.64 308.52,-96.52 308.52,-96.52 308.52,-143.48 308.52,-143.48"/>
<path fill="none" stroke="black" d="M308.52,-143.48C308.52,-140.6 293.28,-138.26 274.52,-138.26 255.76,-138.26 240.52,-140.6 240.52,-143.48"/>
<text text-anchor="middle" x="274.52" y="-124.2" font-family="Times,serif" font-size="14.00">直接从磁盘</text>
<text text-anchor="middle" x="274.52" y="-107.4" font-family="Times,serif" font-size="14.00">中删除</text>
</g>
<!-- t2_mvcc&#45;&gt;t2_clear -->
<g id="edge1" class="edge" data-name="t2_mvcc-&gt;t2_clear">

<path fill="none" stroke="black" stroke-dasharray="5,2" d="M104.9,-120C141.17,-120 192.5,-120 228.98,-120"/>
<polygon fill="black" stroke="black" points="228.75,-123.5 238.75,-120 228.75,-116.5 228.75,-123.5"/>
<text text-anchor="middle" x="162.96" y="-141" font-family="Times,serif" font-size="14.00">超出gc时间</text>
<text text-anchor="middle" x="162.96" y="-124.2" font-family="Times,serif" font-size="14.00">LSM正好有合并</text>
</g>
<!-- t2_mvcc2 -->
<g id="node3" class="node" pointer-events="visible" data-name="t2_mvcc2">

<path fill="none" stroke="black" d="M104.48,-68.48C104.48,-71.36 84.61,-73.7 60.16,-73.7 35.7,-73.7 15.84,-71.36 15.84,-68.48 15.84,-68.48 15.84,-21.52 15.84,-21.52 15.84,-18.64 35.7,-16.3 60.16,-16.3 84.61,-16.3 104.48,-18.64 104.48,-21.52 104.48,-21.52 104.48,-68.48 104.48,-68.48"/>
<path fill="none" stroke="black" d="M104.48,-68.48C104.48,-65.6 84.61,-63.26 60.16,-63.26 35.7,-63.26 15.84,-65.6 15.84,-68.48"/>
<text text-anchor="middle" x="60.16" y="-49.2" font-family="Times,serif" font-size="14.00">作为mvcc数据</text>
<text text-anchor="middle" x="60.16" y="-32.4" font-family="Times,serif" font-size="14.00">仍在region中</text>
</g>
<!-- t2_temp -->
<g id="node4" class="node" pointer-events="visible" data-name="t2_temp">

<path fill="lightpink" stroke="black" d="M316.29,-68.48C316.29,-71.36 297.56,-73.7 274.52,-73.7 251.47,-73.7 232.75,-71.36 232.75,-68.48 232.75,-68.48 232.75,-21.52 232.75,-21.52 232.75,-18.64 251.47,-16.3 274.52,-16.3 297.56,-16.3 316.29,-18.64 316.29,-21.52 316.29,-21.52 316.29,-68.48 316.29,-68.48"/>
<path fill="none" stroke="black" d="M316.29,-68.48C316.29,-65.6 297.56,-63.26 274.52,-63.26 251.47,-63.26 232.75,-65.6 232.75,-68.48"/>
<text text-anchor="middle" x="274.52" y="-49.2" font-family="Times,serif" font-size="14.00">未清理</text>
<text text-anchor="middle" x="274.52" y="-32.4" font-family="Times,serif" font-size="14.00">仍在region中</text>
</g>
<!-- t2_mvcc2&#45;&gt;t2_temp -->
<g id="edge2" class="edge" data-name="t2_mvcc2-&gt;t2_temp">

<path fill="none" stroke="black" stroke-dasharray="5,2" d="M104.9,-45C138.65,-45 185.44,-45 221.17,-45"/>
<polygon fill="black" stroke="black" points="220.84,-48.5 230.84,-45 220.84,-41.5 220.84,-48.5"/>
<text text-anchor="middle" x="162.96" y="-66" font-family="Times,serif" font-size="14.00">超出gc时间</text>
<text text-anchor="middle" x="162.96" y="-49.2" font-family="Times,serif" font-size="14.00">DML少,无合并</text>
</g>
<!-- t2_clear2 -->
<g id="node5" class="node" pointer-events="visible" data-name="t2_clear2">

<path fill="none" stroke="black" d="M500.51,-68.48C500.51,-71.36 488.41,-73.7 473.51,-73.7 458.61,-73.7 446.51,-71.36 446.51,-68.48 446.51,-68.48 446.51,-21.52 446.51,-21.52 446.51,-18.64 458.61,-16.3 473.51,-16.3 488.41,-16.3 500.51,-18.64 500.51,-21.52 500.51,-21.52 500.51,-68.48 500.51,-68.48"/>
<path fill="none" stroke="black" d="M500.51,-68.48C500.51,-65.6 488.41,-63.26 473.51,-63.26 458.61,-63.26 446.51,-65.6 446.51,-68.48"/>
<text text-anchor="middle" x="473.51" y="-49.2" font-family="Times,serif" font-size="14.00">从磁盘</text>
<text text-anchor="middle" x="473.51" y="-32.4" font-family="Times,serif" font-size="14.00">中删除</text>
</g>
<!-- t2_temp&#45;&gt;t2_clear2 -->
<g id="edge3" class="edge" data-name="t2_temp-&gt;t2_clear2">

<path fill="none" stroke="black" stroke-dasharray="5,2" d="M316.34,-45C351.22,-45 401,-45 434.91,-45"/>
<polygon fill="black" stroke="black" points="434.69,-48.5 444.69,-45 434.69,-41.5 434.69,-48.5"/>
<text text-anchor="middle" x="383.35" y="-66" font-family="Times,serif" font-size="14.00">等到LSM合并</text>
<text text-anchor="middle" x="383.35" y="-49.2" font-family="Times,serif" font-size="14.00">或gc回收流程</text>
</g>
<!-- t1_mvcc -->
<g id="node6" class="node" pointer-events="visible" data-name="t1_mvcc">

<path fill="none" stroke="black" d="M104.48,-283.48C104.48,-286.36 84.61,-288.7 60.16,-288.7 35.7,-288.7 15.84,-286.36 15.84,-283.48 15.84,-283.48 15.84,-236.52 15.84,-236.52 15.84,-233.64 35.7,-231.3 60.16,-231.3 84.61,-231.3 104.48,-233.64 104.48,-236.52 104.48,-236.52 104.48,-283.48 104.48,-283.48"/>
<path fill="none" stroke="black" d="M104.48,-283.48C104.48,-280.6 84.61,-278.26 60.16,-278.26 35.7,-278.26 15.84,-280.6 15.84,-283.48"/>
<text text-anchor="middle" x="60.16" y="-264.2" font-family="Times,serif" font-size="14.00">作为mvcc数据</text>
<text text-anchor="middle" x="60.16" y="-247.4" font-family="Times,serif" font-size="14.00">仍在region中</text>
</g>
<!-- t1_tomb -->
<g id="node7" class="node" pointer-events="visible" data-name="t1_tomb">

<path fill="none" stroke="black" d="M327.35,-283.48C327.35,-286.36 303.67,-288.7 274.52,-288.7 245.37,-288.7 221.69,-286.36 221.69,-283.48 221.69,-283.48 221.69,-236.52 221.69,-236.52 221.69,-233.64 245.37,-231.3 274.52,-231.3 303.67,-231.3 327.35,-233.64 327.35,-236.52 327.35,-236.52 327.35,-283.48 327.35,-283.48"/>
<path fill="none" stroke="black" d="M327.35,-283.48C327.35,-280.6 303.67,-278.26 274.52,-278.26 245.37,-278.26 221.69,-280.6 221.69,-283.48"/>
<text text-anchor="middle" x="274.52" y="-264.2" font-family="Times,serif" font-size="14.00">标记为tombstone</text>
<text text-anchor="middle" x="274.52" y="-247.4" font-family="Times,serif" font-size="14.00">仍在region中</text>
</g>
<!-- t1_mvcc&#45;&gt;t1_tomb -->
<g id="edge4" class="edge" data-name="t1_mvcc-&gt;t1_tomb">

<path fill="none" stroke="black" stroke-dasharray="5,2" d="M104.9,-260C135.23,-260 176.09,-260 210,-260"/>
<polygon fill="black" stroke="black" points="209.69,-263.5 219.69,-260 209.69,-256.5 209.69,-263.5"/>
<text text-anchor="middle" x="162.96" y="-281" font-family="Times,serif" font-size="14.00">超出gc时间</text>
<text text-anchor="middle" x="162.96" y="-264.2" font-family="Times,serif" font-size="14.00">gc回收</text>
</g>
<!-- t1_clear -->
<g id="node8" class="node" pointer-events="visible" data-name="t1_clear">

<path fill="none" stroke="black" d="M507.51,-283.48C507.51,-286.36 492.27,-288.7 473.51,-288.7 454.75,-288.7 439.51,-286.36 439.51,-283.48 439.51,-283.48 439.51,-236.52 439.51,-236.52 439.51,-233.64 454.75,-231.3 473.51,-231.3 492.27,-231.3 507.51,-233.64 507.51,-236.52 507.51,-236.52 507.51,-283.48 507.51,-283.48"/>
<path fill="none" stroke="black" d="M507.51,-283.48C507.51,-280.6 492.27,-278.26 473.51,-278.26 454.75,-278.26 439.51,-280.6 439.51,-283.48"/>
<text text-anchor="middle" x="473.51" y="-264.2" font-family="Times,serif" font-size="14.00">彻底从磁盘</text>
<text text-anchor="middle" x="473.51" y="-247.4" font-family="Times,serif" font-size="14.00">中删除</text>
</g>
<!-- t1_tomb&#45;&gt;t1_clear -->
<g id="edge5" class="edge" data-name="t1_tomb-&gt;t1_clear">

<path fill="none" stroke="black" stroke-dasharray="5,2" d="M327.79,-260C358.99,-260 398.18,-260 427.91,-260"/>
<polygon fill="black" stroke="black" points="427.69,-263.5 437.69,-260 427.69,-256.5 427.69,-263.5"/>
<text text-anchor="middle" x="383.35" y="-281" font-family="Times,serif" font-size="14.00">rocksdb做合并</text>
<text text-anchor="middle" x="383.35" y="-264.2" font-family="Times,serif" font-size="14.00">compaction</text>
</g>
</g>
</svg>