<?xml version="1.0" standalone="no"?>
<svg xmlns="http://www.w3.org/2000/svg" xmlns:xlink="http://www.w3.org/1999/xlink" width="682pt" height="942pt" viewBox="0.00 0.00 681.75 942.4">
<g id="graph0" class="graph" transform="translate(4,938.4000244140625) scale(1)" data-name="">
<polygon fill="white" stroke="none" points="-4,4 -4,-938.4 677.75,-938.4 677.75,4 -4,4"/>
<g id="clust1" class="cluster" data-name="cluster_pk">

<polygon fill="none" stroke="black" points="154,-608.57 154,-843.8 476,-843.8 476,-608.57 154,-608.57"/>
</g>
<g id="clust2" class="cluster" data-name="cluster_cls">

<polygon fill="none" stroke="black" points="162,-616.57 162,-757 310,-757 310,-616.57 162,-616.57"/>
<text text-anchor="middle" x="236" y="-740.4" font-family="Times,serif" font-size="14.00">无隐式id(禁止shard)</text>
<text text-anchor="middle" x="236" y="-723.6" font-family="Times,serif" font-size="14.00">(binlog要求单列整数)</text>
</g>
<g id="clust3" class="cluster" data-name="cluster_tidb_rowid">

<polygon fill="none" stroke="black" points="319,-491.94 319,-591.57 649,-591.57 649,-491.94 319,-491.94"/>
<text text-anchor="middle" x="484" y="-574.97" font-family="Times,serif" font-size="14.00">隐式主键 _tidb_rowid</text>
</g>
<g id="clust6" class="cluster" data-name="cluster_clstab_shard">

<polygon fill="none" stroke="black" points="8,-8 8,-281.31 275,-281.31 275,-8 8,-8"/>
<text text-anchor="middle" x="141.5" y="-264.71" font-family="Times,serif" font-size="14.00">业务想打散表的热点(也是pk热点)</text>
</g>
<g id="clust7" class="cluster" data-name="cluster_auto_inc">

<polygon fill="none" stroke="black" points="105,-300.31 105,-472.94 465,-472.94 465,-300.31 105,-300.31"/>
<text text-anchor="middle" x="285" y="-456.34" font-family="Times,serif" font-size="14.00">pk靠自动分配, auto_increment</text>
</g>
<g id="clust11" class="cluster" data-name="cluster_shard">

<polygon fill="none" stroke="black" points="469,-96.8 469,-281.31 653,-281.31 653,-96.8 469,-96.8"/>
<text text-anchor="middle" x="561" y="-264.71" font-family="Times,serif" font-size="14.00">业务想打散表的热点</text>
</g>
<!-- note -->
<g id="node1" class="node" pointer-events="visible" data-name="note">

<polygon fill="none" stroke="black" points="16,-874.8 16,-932.4 376,-932.4 376,-874.8 16,-874.8"/>
<text text-anchor="start" x="24" y="-915.8" font-family="Times,serif" font-size="14.00">shard概念只用于表的隐式id, 影响表的region打散</text>
<text text-anchor="start" x="24" y="-899" font-family="Times,serif" font-size="14.00">auto_increment和auto_random概念只用于主键的id分配</text>
</g>
<!-- 创建主键 -->
<g id="node2" class="node" pointer-events="visible" data-name="创建主键">

<ellipse fill="none" stroke="rgb(0, 0, 0)" cx="399" cy="-817.8" rx="40.01" ry="18"/>
<text text-anchor="middle" x="399" y="-813.6" font-family="Times,serif" font-size="14.00">创建主键</text>
</g>
<!-- nonclstab -->
<g id="node3" class="node" pointer-events="visible" data-name="nonclstab">

<ellipse fill="rgb(135, 206, 250)" stroke="rgb(0, 0, 0)" cx="399" cy="-665.99" rx="69.14" ry="41.09"/>
<text text-anchor="middle" x="399" y="-678.59" font-family="Times,serif" font-size="14.00">nonclustered表</text>
<text text-anchor="middle" x="399" y="-661.79" font-family="Times,serif" font-size="14.00">表key = 隐式id</text>
<text text-anchor="middle" x="399" y="-644.99" font-family="Times,serif" font-size="14.00">pk只是索引</text>
</g>
<!-- 创建主键&#45;&gt;nonclstab -->
<g id="edge3" class="edge" data-name="创建主键-&gt;nonclstab">

<path fill="none" stroke="rgb(0, 0, 0)" d="M399,-799.33C399,-779.65 399,-746.77 399,-718.71"/>
<polygon fill="black" stroke="black" points="402.5,-718.94 399,-708.94 395.5,-718.94 402.5,-718.94"/>
</g>
<!-- clstab -->
<g id="node4" class="node" pointer-events="visible" data-name="clstab">

<ellipse fill="rgb(135, 206, 250)" stroke="rgb(0, 0, 0)" cx="236" cy="-665.99" rx="54.44" ry="29.33"/>
<text text-anchor="middle" x="236" y="-670.19" font-family="Times,serif" font-size="14.00">clustered表</text>
<text text-anchor="middle" x="236" y="-653.39" font-family="Times,serif" font-size="14.00">表key = pk</text>
</g>
<!-- 创建主键&#45;&gt;clstab -->
<g id="edge4" class="edge" data-name="创建主键-&gt;clstab">

<path fill="none" stroke="rgb(0, 0, 0)" d="M370.28,-805.04C347.69,-794.78 316.39,-778.21 294,-757 278.2,-742.05 264.73,-721.95 254.75,-704.54"/>
<polygon fill="black" stroke="black" points="257.92,-703.05 250.02,-695.99 251.8,-706.43 257.92,-703.05"/>
</g>
<!-- noncls_rowid -->
<g id="node5" class="node" pointer-events="visible" data-name="noncls_rowid">

<ellipse fill="none" stroke="rgb(0, 0, 0)" cx="400" cy="-529.36" rx="72.97" ry="29.33"/>
<text text-anchor="middle" x="400" y="-533.56" font-family="Times,serif" font-size="14.00">_rowid-&gt; 行数据</text>
<text text-anchor="middle" x="400" y="-516.76" font-family="Times,serif" font-size="14.00">pk -&gt; _rowid</text>
</g>
<!-- nonclstab&#45;&gt;noncls_rowid -->
<g id="edge7" class="edge" data-name="nonclstab-&gt;noncls_rowid">

<path fill="none" stroke="rgb(0, 0, 0)" d="M399.3,-624.6C399.43,-607.48 399.57,-587.58 399.7,-570.49"/>
<polygon fill="black" stroke="black" points="403.2,-570.72 399.77,-560.69 396.2,-570.66 403.2,-570.72"/>
</g>
<!-- snow -->
<g id="node7" class="node" pointer-events="visible" data-name="snow">

<ellipse fill="none" stroke="rgb(0, 0, 0)" cx="236" cy="-529.36" rx="73.37" ry="29.33"/>
<text text-anchor="middle" x="236" y="-533.56" font-family="Times,serif" font-size="14.00">pk由业务自己生成</text>
<text text-anchor="middle" x="236" y="-516.76" font-family="Times,serif" font-size="14.00">如雪花算法</text>
</g>
<!-- nonclstab&#45;&gt;snow -->
<g id="edge5" class="edge" data-name="nonclstab-&gt;snow">

<path fill="none" stroke="rgb(0, 0, 0)" d="M359.13,-632.05C333.83,-611.16 301.23,-584.23 275.93,-563.33"/>
<polygon fill="black" stroke="black" points="278.41,-560.85 268.47,-557.18 273.95,-566.24 278.41,-560.85"/>
</g>
<!-- clstab&#45;&gt;snow -->
<g id="edge6" class="edge" data-name="clstab-&gt;snow">

<path fill="none" stroke="rgb(0, 0, 0)" d="M236,-636.44C236,-617.16 236,-591.45 236,-570.17"/>
<polygon fill="black" stroke="black" points="239.5,-570.38 236,-560.38 232.5,-570.38 239.5,-570.38"/>
</g>
<!-- inc_cond_cls -->
<g id="node16" class="node" pointer-events="visible" data-name="inc_cond_cls">

<ellipse fill="none" stroke="rgb(0, 0, 0)" cx="182" cy="-410.73" rx="61.97" ry="18"/>
<text text-anchor="middle" x="182" y="-406.53" font-family="Times,serif" font-size="14.00">主键前缀是数值</text>
</g>
<!-- clstab&#45;&gt;inc_cond_cls -->
<g id="edge17" class="edge" data-name="clstab-&gt;inc_cond_cls">

<path fill="none" stroke="rgb(0, 0, 0)" d="M200.36,-643.51C182.89,-630.82 163.59,-613.03 154,-591.57 131.45,-541.11 152.78,-475.65 168.56,-439.24"/>
<polygon fill="black" stroke="black" points="171.67,-440.86 172.6,-430.3 165.29,-437.97 171.67,-440.86"/>
</g>
<!-- inc_cond -->
<g id="node15" class="node" pointer-events="visible" data-name="inc_cond">

<ellipse fill="none" stroke="black" cx="400" cy="-410.73" rx="55.72" ry="29.33"/>
<text text-anchor="middle" x="400" y="-414.93" font-family="Times,serif" font-size="14.00">主键(或索引)</text>
<text text-anchor="middle" x="400" y="-398.13" font-family="Times,serif" font-size="14.00">前缀是数值型</text>
</g>
<!-- noncls_rowid&#45;&gt;inc_cond -->
<g id="edge13" class="edge" data-name="noncls_rowid-&gt;inc_cond">

<path fill="none" stroke="rgb(0, 0, 0)" d="M400,-499.83C400,-485.28 400,-467.36 400,-451.49"/>
<polygon fill="black" stroke="black" points="403.5,-451.88 400,-441.88 396.5,-451.88 403.5,-451.88"/>
</g>
<!-- _rowid默认自增\n(不带auto) -->
<g id="node19" class="node" pointer-events="visible" data-name="_rowid连续自增" data-comment="_rowid默认自增\n(不带auto)">

<ellipse fill="none" stroke="black" cx="561" cy="-410.73" rx="67.23" ry="18"/>
<text text-anchor="middle" x="561" y="-406.53" font-family="Times,serif" font-size="14.00">_rowid连续自增</text>
</g>
<!-- noncls_rowid&#45;&gt;_rowid默认自增\n(不带auto) -->
<g id="edge14" class="edge" data-name="noncls_rowid-&gt;_rowid连续自增" data-comment="noncls_rowid-&gt;_rowid默认自增\n(不带auto)">

<path fill="none" stroke="rgb(0, 0, 0)" d="M434.54,-503.34C462.64,-482.98 501.98,-454.48 529.29,-434.7"/>
<polygon fill="black" stroke="black" points="531.14,-437.68 537.18,-428.98 527.03,-432.01 531.14,-437.68"/>
</g>
<!-- nonpk_rowid -->
<g id="node6" class="node" pointer-events="visible" data-name="nonpk_rowid">

<ellipse fill="none" stroke="black" cx="566" cy="-529.36" rx="75.42" ry="29.33"/>
<text text-anchor="middle" x="566" y="-533.56" font-family="Times,serif" font-size="14.00">_rowid -&gt; 行数据</text>
<text text-anchor="middle" x="566" y="-516.76" font-family="Times,serif" font-size="14.00">(索引 -&gt; _rowid)</text>
</g>
<!-- nonpk_rowid&#45;&gt;inc_cond -->
<g id="edge15" class="edge" data-name="nonpk_rowid-&gt;inc_cond">

<path fill="none" stroke="black" d="M529.18,-503.44C515.28,-493.97 499.36,-483.03 485,-472.94 470.73,-462.92 455.23,-451.82 441.41,-441.86"/>
<polygon fill="black" stroke="black" points="443.54,-439.07 433.39,-436.05 439.44,-444.75 443.54,-439.07"/>
</g>
<!-- nonpk_rowid&#45;&gt;_rowid默认自增\n(不带auto) -->
<g id="edge16" class="edge" data-name="nonpk_rowid-&gt;_rowid连续自增" data-comment="nonpk_rowid-&gt;_rowid默认自增\n(不带auto)">

<path fill="none" stroke="black" d="M564.78,-499.83C564,-481.77 563.01,-458.5 562.23,-440.41"/>
<polygon fill="black" stroke="black" points="565.74,-440.47 561.81,-430.62 558.74,-440.77 565.74,-440.47"/>
</g>
<!-- 建表\n一切按Key排序存储 -->
<g id="node8" class="node" pointer-events="visible" data-name="建表\n一切按Key排序存储">

<ellipse fill="none" stroke="black" cx="474" cy="-903.6" rx="79.56" ry="29.33"/>
<text text-anchor="middle" x="474" y="-907.8" font-family="Times,serif" font-size="14.00">建表</text>
<text text-anchor="middle" x="474" y="-891" font-family="Times,serif" font-size="14.00">一切按Key排序存储</text>
</g>
<!-- 建表\n一切按Key排序存储&#45;&gt;创建主键 -->
<g id="edge1" class="edge" data-name="建表\n一切按Key排序存储-&gt;创建主键">

<path fill="none" stroke="rgb(0, 0, 0)" d="M449.86,-875.63C440.58,-865.27 430.06,-853.5 420.99,-843.38"/>
<polygon fill="black" stroke="black" points="423.76,-841.23 414.49,-836.11 418.55,-845.89 423.76,-841.23"/>
</g>
<!-- 无主键表 -->
<g id="node9" class="node" pointer-events="visible" data-name="无主键表">

<ellipse fill="none" stroke="black" cx="524" cy="-817.8" rx="40.01" ry="18"/>
<text text-anchor="middle" x="524" y="-813.6" font-family="Times,serif" font-size="14.00">无主键表</text>
</g>
<!-- 建表\n一切按Key排序存储&#45;&gt;无主键表 -->
<g id="edge2" class="edge" data-name="建表\n一切按Key排序存储-&gt;无主键表">

<path fill="none" stroke="black" d="M490.65,-874.7C496.32,-865.19 502.65,-854.59 508.25,-845.2"/>
<polygon fill="black" stroke="black" points="511.09,-847.28 513.2,-836.9 505.07,-843.69 511.09,-847.28"/>
</g>
<!-- 无主键表&#45;&gt;nonclstab -->
<g id="edge9" class="edge" data-name="无主键表-&gt;nonclstab">

<path fill="none" stroke="rgb(0, 0, 0)" stroke-dasharray="5,2" d="M503.2,-791.88C485.05,-770.12 458.26,-738.01 436.39,-711.8"/>
<polygon fill="black" stroke="black" points="500.32,-793.89 509.42,-799.32 505.7,-789.4 500.32,-793.89"/>
<polygon fill="black" stroke="black" points="439.24,-709.76 430.15,-704.32 433.87,-714.24 439.24,-709.76"/>
<text text-anchor="middle" x="508.75" y="-769.2" font-family="Times,serif" font-size="14.00">可转换</text>
</g>
<!-- 无主键表&#45;&gt;nonpk_rowid -->
<g id="edge8" class="edge" data-name="无主键表-&gt;nonpk_rowid">

<path fill="none" stroke="black" d="M526.5,-799.74C533.05,-755.07 550.84,-633.75 560.15,-570.27"/>
<polygon fill="black" stroke="black" points="563.57,-571.03 561.56,-560.62 556.65,-570.01 563.57,-571.03"/>
</g>
<!-- note1 -->
<g id="node10" class="node" pointer-events="visible" data-name="note1">

<polygon fill="none" stroke="black" points="673.5,-928.21 590.5,-928.21 590.5,-934.21 572.5,-903.6 590.5,-873 590.5,-879 673.5,-879 673.5,-928.21"/>
<text text-anchor="middle" x="623" y="-907.8" font-family="Times,serif" font-size="14.00">表key和表pk</text>
<text text-anchor="middle" x="623" y="-891" font-family="Times,serif" font-size="14.00">是两个不同概念</text>
</g>
<!-- need_shard_pk -->
<g id="node11" class="node" pointer-events="visible" data-name="need_shard_pk">

<ellipse fill="none" stroke="rgb(0, 0, 0)" cx="141" cy="-122.8" rx="75.86" ry="18"/>
<text text-anchor="middle" x="141" y="-118.6" font-family="Times,serif" font-size="14.00">想打散pk的连续性?</text>
</g>
<!-- auto_random -->
<g id="node12" class="node" pointer-events="visible" data-name="auto_random">

<ellipse fill="rgb(135, 206, 250)" stroke="rgb(0, 0, 0)" cx="141" cy="-34" rx="61.98" ry="18"/>
<text text-anchor="middle" x="141" y="-29.8" font-family="Times,serif" font-size="14.00">auto_random</text>
</g>
<!-- need_shard_pk&#45;&gt;auto_random -->
<g id="edge10" class="edge" data-name="need_shard_pk-&gt;auto_random">

<path fill="none" stroke="rgb(0, 0, 0)" d="M141,-104.65C141,-92.96 141,-77.19 141,-63.62"/>
<polygon fill="black" stroke="black" points="144.5,-63.92 141,-53.92 137.5,-63.92 144.5,-63.92"/>
<text text-anchor="middle" x="167.83" y="-74.2" font-family="Times,serif" font-size="14.00">bigint主键</text>
</g>
<!-- 插入自增的pk\n产生写热点 -->
<g id="node13" class="node" pointer-events="visible" data-name="插入自增的pk\n产生写热点">

<ellipse fill="none" stroke="rgb(0, 0, 0)" cx="74" cy="-219.1" rx="58.17" ry="29.33"/>
<text text-anchor="middle" x="74" y="-223.3" font-family="Times,serif" font-size="14.00">插入自增的pk</text>
<text text-anchor="middle" x="74" y="-206.5" font-family="Times,serif" font-size="14.00">产生写热点</text>
</g>
<!-- 插入自增的pk\n产生写热点&#45;&gt;need_shard_pk -->
<g id="edge20" class="edge" data-name="插入自增的pk\n产生写热点-&gt;need_shard_pk">

<path fill="none" stroke="rgb(0, 0, 0)" d="M93.2,-191.07C102.32,-178.24 113.18,-162.95 122.25,-150.19"/>
<polygon fill="black" stroke="black" points="124.95,-152.43 127.89,-142.25 119.25,-148.37 124.95,-152.43"/>
</g>
<!-- 读某范围的pk\n产生读热点 -->
<g id="node14" class="node" pointer-events="visible" data-name="读某范围的pk\n产生读热点">

<ellipse fill="none" stroke="rgb(0, 0, 0)" cx="209" cy="-219.1" rx="58.17" ry="29.33"/>
<text text-anchor="middle" x="209" y="-223.3" font-family="Times,serif" font-size="14.00">读某范围的pk</text>
<text text-anchor="middle" x="209" y="-206.5" font-family="Times,serif" font-size="14.00">产生读热点</text>
</g>
<!-- 读某范围的pk\n产生读热点&#45;&gt;need_shard_pk -->
<g id="edge21" class="edge" data-name="读某范围的pk\n产生读热点-&gt;need_shard_pk">

<path fill="none" stroke="rgb(0, 0, 0)" d="M189.51,-191.07C180.26,-178.24 169.23,-162.95 160.03,-150.19"/>
<polygon fill="black" stroke="black" points="162.99,-148.31 154.3,-142.24 157.31,-152.4 162.99,-148.31"/>
</g>
<!-- noncls_auto -->
<g id="node18" class="node" pointer-events="visible" data-name="noncls_auto">

<ellipse fill="lightskyblue" stroke="black" cx="381" cy="-326.31" rx="75.89" ry="18"/>
<text text-anchor="middle" x="381" y="-322.11" font-family="Times,serif" font-size="14.00">普通表pk使用 auto</text>
</g>
<!-- inc_cond&#45;&gt;noncls_auto -->
<g id="edge11" class="edge" data-name="inc_cond-&gt;noncls_auto">

<path fill="none" stroke="black" d="M393.46,-381.36C391.54,-373.01 389.43,-363.87 387.5,-355.53"/>
<polygon fill="black" stroke="black" points="390.94,-354.85 385.28,-345.89 384.12,-356.42 390.94,-354.85"/>
</g>
<!-- clstab_auto -->
<g id="node17" class="node" pointer-events="visible" data-name="clstab_auto">

<ellipse fill="rgb(135, 206, 250)" stroke="rgb(0, 0, 0)" cx="200" cy="-326.31" rx="87.41" ry="18"/>
<text text-anchor="middle" x="200" y="-322.11" font-family="Times,serif" font-size="14.00">cluster表pk使用 auto</text>
</g>
<!-- inc_cond_cls&#45;&gt;clstab_auto -->
<g id="edge12" class="edge" data-name="inc_cond_cls-&gt;clstab_auto">

<path fill="none" stroke="rgb(0, 0, 0)" d="M185.73,-392.65C188.06,-382 191.11,-368.04 193.79,-355.75"/>
<polygon fill="black" stroke="black" points="197.18,-356.64 195.89,-346.13 190.34,-355.15 197.18,-356.64"/>
</g>
<!-- clstab_auto&#45;&gt;插入自增的pk\n产生写热点 -->
<g id="edge18" class="edge" data-name="clstab_auto-&gt;插入自增的pk\n产生写热点">

<path fill="none" stroke="rgb(0, 0, 0)" d="M177.07,-308.61C166.27,-300.56 153.3,-290.65 142,-281.31 131.19,-272.37 119.75,-262.32 109.4,-252.98"/>
<polygon fill="black" stroke="black" points="111.88,-250.5 102.12,-246.37 107.17,-255.68 111.88,-250.5"/>
</g>
<!-- clstab_auto&#45;&gt;读某范围的pk\n产生读热点 -->
<g id="edge19" class="edge" data-name="clstab_auto-&gt;读某范围的pk\n产生读热点">

<path fill="none" stroke="rgb(0, 0, 0)" d="M201.49,-307.94C202.61,-294.85 204.19,-276.37 205.61,-259.74"/>
<polygon fill="black" stroke="black" points="209.07,-260.38 206.43,-250.12 202.09,-259.78 209.07,-260.38"/>
</g>
<!-- noncls_pk_hot -->
<g id="node22" class="node" pointer-events="visible" data-name="noncls_pk_hot">

<ellipse fill="rgb(255, 182, 193)" stroke="black" cx="378" cy="-219.1" rx="81.3" ry="41.09"/>
<text text-anchor="middle" x="378" y="-231.7" font-family="Times,serif" font-size="14.00">PK是连续自增</text>
<text text-anchor="middle" x="378" y="-214.9" font-family="Times,serif" font-size="14.00">主键region易成热点</text>
<text text-anchor="middle" x="378" y="-198.1" font-family="Times,serif" font-size="14.00">split效果不大</text>
</g>
<!-- noncls_auto&#45;&gt;noncls_pk_hot -->
<g id="edge25" class="edge" data-name="noncls_auto-&gt;noncls_pk_hot">

<path fill="none" stroke="black" d="M380.5,-307.94C380.22,-297.91 379.84,-284.74 379.47,-271.64"/>
<polygon fill="black" stroke="black" points="382.97,-271.65 379.19,-261.76 375.97,-271.85 382.97,-271.65"/>
</g>
<!-- hot_rowid -->
<g id="node20" class="node" pointer-events="visible" data-name="hot_rowid">

<ellipse fill="none" stroke="black" cx="561" cy="-219.1" rx="83.75" ry="29.33"/>
<text text-anchor="middle" x="561" y="-223.3" font-family="Times,serif" font-size="14.00">批量插入时只写表的</text>
<text text-anchor="middle" x="561" y="-206.5" font-family="Times,serif" font-size="14.00">一个region,易成热点</text>
</g>
<!-- _rowid默认自增\n(不带auto)&#45;&gt;hot_rowid -->

<!-- shard --><g id="edge23" class="edge" data-name="_rowid连续自增-&gt;hot_rowid" data-comment="shard">

<path fill="none" stroke="black" d="M561,-392.56C561,-362.86 561,-301.11 561,-260.14"/>
<polygon fill="black" stroke="black" points="564.5,-260.17 561,-250.17 557.5,-260.17 564.5,-260.17"/>
</g>
<g id="node21" class="node" pointer-events="visible" data-name="shard">

<ellipse fill="lightskyblue" stroke="black" cx="561" cy="-122.8" rx="82.84" ry="18"/>
<text text-anchor="middle" x="561" y="-118.6" font-family="Times,serif" font-size="14.00">shard_row_id_bits</text>
</g>
<!-- hot_rowid&#45;&gt;shard -->
<!-- hot_rowid&#45;&gt;shard -->
<g id="edge22" class="edge" data-name="hot_rowid-&gt;shard">

<path fill="none" stroke="black" d="M561,-189.29C561,-177.63 561,-164.2 561,-152.55"/>
<polygon fill="black" stroke="black" points="564.5,-152.72 561,-142.72 557.5,-152.72 564.5,-152.72"/>
</g>
</g>
</svg>