<?xml version="1.0" standalone="no"?>
<svg xmlns="http://www.w3.org/2000/svg" xmlns:xlink="http://www.w3.org/1999/xlink" width="556pt" height="819pt" viewBox="0.00 0.00 555.52 819.48">
<g id="graph0" class="graph" transform="translate(4,815.47998046875) scale(1)" data-name="">
<polygon fill="white" stroke="none" points="-4,4 -4,-815.48 551.52,-815.48 551.52,4 -4,4"/>
<g id="clust1" class="cluster" data-name="cluster_delete">

<polygon fill="none" stroke="black" stroke-dasharray="5,2" points="39.52,-575.82 39.52,-650.65 437.52,-650.65 437.52,-575.82 39.52,-575.82"/>
</g>
<g id="clust3" class="cluster" data-name="cluster_realdelete">

<polygon fill="none" stroke="black" stroke-dasharray="5,2" points="33.52,-103.4 33.52,-162 375.52,-162 375.52,-103.4 33.52,-103.4"/>
</g>
<!-- select_min -->
<g id="node1" class="node" pointer-events="visible" data-name="select_min">

<ellipse fill="lightpink" stroke="black" cx="336.52" cy="-613.24" rx="92.92" ry="29.33"/>
<text text-anchor="middle" x="336.52" y="-617.44" font-family="Times,serif" font-size="14.00">然后查询, 花了一分钟</text>
<text text-anchor="middle" x="336.52" y="-600.64" font-family="Times,serif" font-size="14.00">select min(dt) from t</text>
</g>
<!-- explain -->
<g id="node12" class="node" pointer-events="visible" data-name="explain">

<text text-anchor="start" x="339.52" y="-514.42" font-family="Times,serif" font-size="14.00">dt有索引, tidb内部把min改写为:</text>
<text text-anchor="start" x="339.52" y="-497.62" font-family="Times,serif" font-size="14.00">    select t order by dt limit 1</text>
<text text-anchor="start" x="339.52" y="-480.82" font-family="Times,serif" font-size="14.00">理论上tikv只读取有效的第一条,</text>
<text text-anchor="start" x="339.52" y="-464.02" font-family="Times,serif" font-size="14.00">但tikv从索引头部扫描起,</text>
<text text-anchor="start" x="339.52" y="-447.22" font-family="Times,serif" font-size="14.00">需要跳过5000万条mvcc数据,</text>
<text text-anchor="start" x="339.52" y="-430.42" font-family="Times,serif" font-size="14.00">sql执行信息中的skip count有记录</text>
</g>
<!-- select_min&#45;&gt;explain -->
<g id="edge11" class="edge" data-name="select_min-&gt;explain">

<path fill="none" stroke="black" stroke-dasharray="5,2" d="M364.84,-575.22C375.34,-561.5 387.46,-545.66 398.85,-530.78"/>
<polygon fill="black" stroke="black" points="362.08,-573.07 358.78,-583.14 367.64,-577.33 362.08,-573.07"/>
</g>
<!-- tunning -->
<g id="node13" class="node" pointer-events="visible" data-name="tunning">

<polygon fill="lightskyblue" stroke="none" points="327.02,-271.7 226.02,-271.7 226.02,-192.89 327.02,-192.89 327.02,-271.7"/>
<text text-anchor="middle" x="276.52" y="-244.9" font-family="Times,serif" font-size="14.00">解决办法</text>
<text text-anchor="middle" x="276.52" y="-228.1" font-family="Times,serif" font-size="14.00">清理的时间提前</text>
<text text-anchor="middle" x="276.52" y="-211.3" font-family="Times,serif" font-size="14.00">或查询时刻延后</text>
</g>
<!-- select_min&#45;&gt;tunning -->
<g id="edge12" class="edge" data-name="select_min-&gt;tunning">

<path fill="none" stroke="black" stroke-dasharray="1,5" d="M327.25,-583.56C322.55,-568.13 317.1,-548.69 313.52,-531.02 296.03,-444.64 285.49,-342.37 280.36,-282.96"/>
<polygon fill="black" stroke="black" points="283.87,-282.84 279.54,-273.17 276.89,-283.43 283.87,-282.84"/>
</g>
<!-- 变成mvcc数据\n保留在表中 -->
<g id="node2" class="node" pointer-events="visible" data-name="变成mvcc数据\n保留在表中">

<ellipse fill="none" stroke="black" cx="109.52" cy="-613.24" rx="62.4" ry="29.33"/>
<text text-anchor="middle" x="109.52" y="-617.44" font-family="Times,serif" font-size="14.00">变成mvcc数据</text>
<text text-anchor="middle" x="109.52" y="-600.64" font-family="Times,serif" font-size="14.00">保留在表中</text>
</g>
<!-- 变成mvcc数据\n保留在表中&#45;&gt;select_min -->
<!-- is_comp_filter -->
<g id="node6" class="node" pointer-events="visible" data-name="is_comp_filter">

<polygon fill="none" stroke="black" points="109.52,-510.32 44.4,-476.62 109.52,-442.92 174.64,-476.62 109.52,-510.32"/>
<text text-anchor="middle" x="109.52" y="-480.82" font-family="Times,serif" font-size="14.00">compaction</text>
<text text-anchor="middle" x="109.52" y="-464.02" font-family="Times,serif" font-size="14.00">_filter参数?</text>
</g>
<!-- 变成mvcc数据\n保留在表中&#45;&gt;is_comp_filter -->
<g id="edge4" class="edge" data-name="变成mvcc数据\n保留在表中-&gt;is_comp_filter">

<path fill="none" stroke="black" stroke-dasharray="5,2" d="M109.52,-583.69C109.52,-565.88 109.52,-542.59 109.52,-522.36"/>
<polygon fill="black" stroke="black" points="113.02,-522.39 109.52,-512.39 106.02,-522.39 113.02,-522.39"/>
<text text-anchor="middle" x="158.71" y="-553.22" font-family="Times,serif" font-size="14.00">保留时间超出gc life</text>
</g>
<!-- del_end -->
<g id="node3" class="node" pointer-events="visible" data-name="del_end">

<polygon fill="none" stroke="black" points="41.52,-111.9 41.52,-153.5 149.52,-153.5 149.52,-111.9 41.52,-111.9"/>
<text text-anchor="middle" x="95.27" y="-136.9" font-family="Times,serif" font-size="14.00">delete的数据</text>
<text text-anchor="middle" x="95.27" y="-120.1" font-family="Times,serif" font-size="14.00">真正从磁盘抹去</text>
</g>
<!-- select_after_clear -->
<g id="node4" class="node" pointer-events="visible" data-name="select_after_clear">

<ellipse fill="none" stroke="black" cx="276.52" cy="-132.7" rx="90.87" ry="18"/>
<text text-anchor="middle" x="276.52" y="-128.5" font-family="Times,serif" font-size="14.00">select min(dt) from t</text>
</g>
<!-- exp2 -->
<g id="node14" class="node" pointer-events="visible" data-name="exp2">

<text text-anchor="middle" x="276.52" y="-41.8" font-family="Times,serif" font-size="14.00">此时dt索引头部没有mvcc数据</text>
<text text-anchor="middle" x="276.52" y="-25" font-family="Times,serif" font-size="14.00">查询min只需读索引第一个region</text>
<text text-anchor="middle" x="276.52" y="-8.2" font-family="Times,serif" font-size="14.00">就大概率能取得有效数据</text>
</g>
<!-- select_after_clear&#45;&gt;exp2 -->
<g id="edge14" class="edge" data-name="select_after_clear-&gt;exp2">

<path fill="none" stroke="black" stroke-dasharray="5,2" d="M276.52,-103.3C276.52,-94.14 276.52,-83.86 276.52,-74.22"/>
<polygon fill="black" stroke="black" points="273.02,-103.04 276.52,-113.04 280.02,-103.04 273.02,-103.04"/>
</g>
<!-- delete数据 -->
<g id="node5" class="node" pointer-events="visible" data-name="delete数据">

<ellipse fill="none" stroke="black" cx="109.52" cy="-709.07" rx="48.65" ry="18"/>
<text text-anchor="middle" x="109.52" y="-704.87" font-family="Times,serif" font-size="14.00">delete数据</text>
</g>
<!-- delete数据&#45;&gt;变成mvcc数据\n保留在表中 -->
<g id="edge2" class="edge" data-name="delete数据-&gt;变成mvcc数据\n保留在表中">

<path fill="none" stroke="black" d="M109.52,-690.86C109.52,-680.57 109.52,-667.04 109.52,-654.22"/>
<polygon fill="black" stroke="black" points="113.02,-654.27 109.52,-644.27 106.02,-654.27 113.02,-654.27"/>
</g>
<!-- rocksdb_clear -->
<g id="node7" class="node" pointer-events="visible" data-name="rocksdb_clear">

<ellipse fill="none" stroke="black" cx="95.52" cy="-232.3" rx="64.84" ry="41.09"/>
<text text-anchor="middle" x="95.52" y="-244.9" font-family="Times,serif" font-size="14.00">由rocksdb在</text>
<text text-anchor="middle" x="95.52" y="-228.1" font-family="Times,serif" font-size="14.00">compaction时</text>
<text text-anchor="middle" x="95.52" y="-211.3" font-family="Times,serif" font-size="14.00">一起清理</text>
</g>
<!-- is_comp_filter&#45;&gt;rocksdb_clear -->
<g id="edge5" class="edge" data-name="is_comp_filter-&gt;rocksdb_clear">

<path fill="none" stroke="black" d="M82.34,-456.95C57.59,-438.14 22.7,-406.62 7.76,-369.42 -1.99,-345.16 -3.01,-334.42 7.76,-310.59 15.03,-294.5 27.48,-280.42 40.76,-268.85"/>
<polygon fill="black" stroke="black" points="42.9,-271.63 48.4,-262.57 38.45,-266.22 42.9,-271.63"/>
<text text-anchor="middle" x="29.9" y="-335.81" font-family="Times,serif" font-size="14.00">默认true</text>
</g>
<!-- gc worker\n标记为tomestone -->
<g id="node10" class="node" pointer-events="visible" data-name="gc worker\n标记为tomestone">

<ellipse fill="none" stroke="black" cx="142.52" cy="-340.01" rx="74.06" ry="29.33"/>
<text text-anchor="middle" x="142.52" y="-344.21" font-family="Times,serif" font-size="14.00">gc worker</text>
<text text-anchor="middle" x="142.52" y="-327.41" font-family="Times,serif" font-size="14.00">标记为tomestone</text>
</g>
<!-- is_comp_filter&#45;&gt;gc worker\n标记为tomestone -->
<g id="edge6" class="edge" data-name="is_comp_filter-&gt;gc worker\n标记为tomestone">

<path fill="none" stroke="black" d="M116.68,-446.41C121.38,-427.23 127.6,-401.89 132.75,-380.87"/>
<polygon fill="black" stroke="black" points="136.15,-381.71 135.13,-371.17 129.35,-380.04 136.15,-381.71"/>
<text text-anchor="middle" x="144.74" y="-391.62" font-family="Times,serif" font-size="14.00">false</text>
</g>
<!-- rocksdb_clear&#45;&gt;del_end -->
<g id="edge8" class="edge" data-name="rocksdb_clear-&gt;del_end">

<path fill="none" stroke="black" d="M95.52,-190.75C95.52,-182.1 95.52,-173.08 95.52,-164.85"/>
<polygon fill="black" stroke="black" points="99.02,-164.98 95.52,-154.98 92.02,-164.98 99.02,-164.98"/>
</g>
<!-- note1 -->
<g id="node8" class="node" pointer-events="visible" data-name="note1">

<text text-anchor="middle" x="109.52" y="-789.28" font-family="Times,serif" font-size="14.00">理论回顾</text>
</g>
<!-- note1&#45;&gt;delete数据 -->
<!-- note2 -->
<g id="node9" class="node" pointer-events="visible" data-name="note2">

<text text-anchor="middle" x="336.52" y="-789.28" font-family="Times,serif" font-size="14.00">案例</text>
</g>
<!-- delsql -->
<g id="node11" class="node" pointer-events="visible" data-name="delsql">

<ellipse fill="none" stroke="black" cx="336.52" cy="-709.07" rx="107.17" ry="29.33"/>
<text text-anchor="middle" x="336.52" y="-713.27" font-family="Times,serif" font-size="14.00">先清理30天前数据5千万条</text>
<text text-anchor="middle" x="336.52" y="-696.47" font-family="Times,serif" font-size="14.00">delete t where dt&lt;30天前</text>
</g>
<!-- note2&#45;&gt;delsql -->
<!-- gc worker\n标记为tomestone&#45;&gt;rocksdb_clear -->
<g id="edge7" class="edge" data-name="gc worker\n标记为tomestone-&gt;rocksdb_clear">

<path fill="none" stroke="black" d="M129.93,-310.68C126.05,-301.96 121.67,-292.11 117.36,-282.42"/>
<polygon fill="black" stroke="black" points="120.62,-281.14 113.36,-273.42 114.23,-283.98 120.62,-281.14"/>
</g>
<!-- delsql&#45;&gt;select_min -->
<g id="edge10" class="edge" data-name="delsql-&gt;select_min">

<path fill="none" stroke="black" d="M336.52,-679.41C336.52,-671.48 336.52,-662.72 336.52,-654.27"/>
<polygon fill="black" stroke="black" points="340.02,-654.56 336.52,-644.56 333.02,-654.56 340.02,-654.56"/>
</g>
<!-- tunning&#45;&gt;select_after_clear -->
<g id="edge13" class="edge" data-name="tunning-&gt;select_after_clear">

<path fill="none" stroke="black" stroke-dasharray="1,5" d="M276.52,-193C276.52,-182.79 276.52,-171.93 276.52,-162.34"/>
<polygon fill="black" stroke="black" points="280.02,-162.51 276.52,-152.51 273.02,-162.51 280.02,-162.51"/>
</g>
</g>
</svg>